# xmcd
#
# Track frame offsets:
#	150
#	28253
#	44844
#	68263
#	84296
#	93230
#	108187
#	124131
#	145912
#	161143
#	180739
#	225485
#	245636
#	271404
#	288839
#	299903
#
# Disc length: 4229 seconds
#
# Revision: 1
# Processed by: cddbd v1.5.2PL0 Copyright (c) Steve Scherf et al.
# Submitted via: audiograbber 1.83.01
#
DISCID=e9108310
DTITLE=Factory - Funny
DYEAR=1900
DGENRE=
TTITLE0=Village People - Born to be alive
TTITLE1=Village People - Can't Stop The Music
TTITLE2=Village People - Disco Inferno
TTITLE3=Village People - Go West
TTITLE4=Village People - In the Navy
TTITLE5=Village People - Kung Fu Fighting.
TTITLE6=Village People - Macho Man
TTITLE7=Village People - YMCA
TTITLE8=Village People - San Fransisco
TTITLE9=Wolfgang Petry - 80er Hitmix
TTITLE10=Wolfgang Petry - Der 'Konkret' Hitmix
TTITLE11=Wolfgang Petry - Hitmix Medley
TTITLE12=Global Playboys - The Sound Of San Francisco
TTITLE13=Andre Schiller - Dance of World.
TTITLE14=Andre Schiller - Hip Hop song
TTITLE15=Andre Schiller - Dance The Song
EXTD=
EXTT0=
EXTT1=
EXTT2=
EXTT3=
EXTT4=
EXTT5=
EXTT6=
EXTT7=
EXTT8=
EXTT9=
EXTT10=
EXTT11=
EXTT12=
EXTT13=
EXTT14=
EXTT15=
PLAYORDER=
